<svg xmlns="http://www.w3.org/2000/svg" width="48" height="48" viewBox="0 0 48 48"><defs><style>.a{fill:#ecefff;}.b{fill:#0f33ff;}</style></defs><rect class="a" width="48" height="48" rx="24"/><g transform="translate(23.899 14) rotate(45)"><path class="b" d="M13.24,6.024H7.977V.761A.944.944,0,0,0,7,0a.944.944,0,0,0-.977.76V6.024H.76A.944.944,0,0,0,0,7a.944.944,0,0,0,.76.977H6.023v5.264A.944.944,0,0,0,7,14a.944.944,0,0,0,.977-.76V7.978H13.24A.944.944,0,0,0,14,7,.944.944,0,0,0,13.24,6.024Z" transform="translate(0 -0.001)"/></g></svg>