<svg xmlns="http://www.w3.org/2000/svg" width="180.354" height="34.745" viewBox="0 0 180.354 34.745"><defs><style>.a{fill:#1232f9;}.b{fill:#16181c;}</style></defs><path class="a" d="M189.9,28.3h0a2.81,2.81,0,0,1-2.8-2.8h0a2.81,2.81,0,0,1,2.8-2.8h0a2.81,2.81,0,0,1,2.8,2.8h0A2.872,2.872,0,0,1,189.9,28.3Z" transform="translate(-12.35 -1.498)"/><path class="b" d="M82.535,0A2.312,2.312,0,0,0,80.2,2.335V24a2.335,2.335,0,0,0,4.67,0V2.335A2.312,2.312,0,0,0,82.535,0Z" transform="translate(-5.294)"/><path class="b" d="M64.747,8.5c-5.324-.093-9.247,4.2-9.247,9.527A9.615,9.615,0,0,0,67.362,27.18a11.4,11.4,0,0,0,3.269-1.308A2.113,2.113,0,1,0,68.2,22.416a5.181,5.181,0,0,1-3.456.841,4.536,4.536,0,0,1-4.39-3.362H71.284a2.7,2.7,0,0,0,2.8-2.989v-.093A9.69,9.69,0,0,0,64.747,8.5Zm-4.67,7.752A4.451,4.451,0,0,1,64.56,12.7a4.28,4.28,0,0,1,4.577,3.549Z" transform="translate(-3.663 -0.561)"/><path class="b" d="M177.9,19.795H179.2a2.7,2.7,0,0,0,2.8-2.989v-.093a9.5,9.5,0,0,0-9.06-8.313c-5.324-.093-9.247,4.2-9.247,9.527a9.615,9.615,0,0,0,11.862,9.153,11.4,11.4,0,0,0,3.269-1.308,2.113,2.113,0,1,0-2.428-3.456,5.181,5.181,0,0,1-3.456.841,4.536,4.536,0,0,1-4.39-3.362h9.34Zm-9.714-3.549a4.451,4.451,0,0,1,4.483-3.549,4.28,4.28,0,0,1,4.577,3.549Z" transform="translate(-10.805 -0.554)"/><path class="b" d="M110.267,8.5a6.8,6.8,0,0,0-5.23,2.428A5.632,5.632,0,0,0,100.273,8.5a7,7,0,0,0-4.483,1.681,2.218,2.218,0,0,0-2.055-1.214A2.312,2.312,0,0,0,91.4,11.3V24.565A2.312,2.312,0,0,0,93.735,26.9h0a2.312,2.312,0,0,0,2.335-2.335V15.318a2.692,2.692,0,0,1,.654-1.868,2.912,2.912,0,0,1,1.961-.841,2.711,2.711,0,0,1,2.709,2.709h0v9.247a2.335,2.335,0,0,0,4.67,0V15.318a2.632,2.632,0,0,1,2.709-2.615,2.711,2.711,0,0,1,2.709,2.709h0v9.247a2.312,2.312,0,0,0,2.335,2.335h0a2.312,2.312,0,0,0,2.335-2.335V14.384A5.746,5.746,0,0,0,110.267,8.5Z" transform="translate(-6.033 -0.561)"/><path class="b" d="M27.735,9A2.312,2.312,0,0,0,25.4,11.335V24.6a2.335,2.335,0,1,0,4.67,0V11.335A2.312,2.312,0,0,0,27.735,9Z" transform="translate(-1.677 -0.594)"/><path class="b" d="M139.618,8.967a2.494,2.494,0,0,0-2.335,1.868h0a8.055,8.055,0,0,0-5.7-2.335c-4.857,0-8.686,4.2-8.686,9.433s3.923,9.433,8.686,9.433a8.293,8.293,0,0,0,5.7-2.335,2.248,2.248,0,0,0,2.335,1.868,2.312,2.312,0,0,0,2.335-2.335V11.3A2.312,2.312,0,0,0,139.618,8.967Zm-7.192,14.01a4.944,4.944,0,0,1-4.95-5.044,4.944,4.944,0,0,1,4.95-5.044,4.867,4.867,0,0,1,4.857,5.044A4.867,4.867,0,0,1,132.427,22.977Z" transform="translate(-8.112 -0.561)"/><path class="b" d="M156.733,13.053a2.173,2.173,0,0,0,2.148-2.148,2.255,2.255,0,0,0-2.148-2.242h-1.775V6.235a2.335,2.335,0,1,0-4.67,0V8.663h-.841a2.173,2.173,0,0,0-2.148,2.148,2.238,2.238,0,0,0,2.148,2.148h.841v6.725c0,2.148-.654,6.818,6.445,6.818a2.148,2.148,0,0,0,0-4.3c-1.214-.093-1.681-.467-1.681-2.148v-7.1l1.681.093Z" transform="translate(-9.723 -0.257)"/><path class="b" d="M49.692,9.463a2.265,2.265,0,0,0-3.269.374l-3.362,4.3L39.7,9.836a2.327,2.327,0,0,0-3.643,2.9l4.11,5.23-4.2,5.137a2.327,2.327,0,0,0,3.643,2.9l3.269-4.2,3.269,4.2a2.274,2.274,0,0,0,3.269.374h0a2.274,2.274,0,0,0,.374-3.269L45.77,17.962l4.11-5.23A2.123,2.123,0,0,0,49.692,9.463Z" transform="translate(-2.339 -0.59)"/><circle class="b" cx="2.335" cy="2.335" r="2.335" transform="translate(23.723)"/><path class="b" d="M10.367,8.5a8.293,8.293,0,0,0-5.7,2.335A2.332,2.332,0,0,0,2.335,8.967,2.312,2.312,0,0,0,0,11.3V32.971a2.312,2.312,0,0,0,2.335,2.335A2.312,2.312,0,0,0,4.67,32.971V25.032a8.472,8.472,0,0,0,5.7,2.335c4.857,0,8.686-4.2,8.686-9.433A8.972,8.972,0,0,0,10.367,8.5ZM9.527,23.07A4.867,4.867,0,0,1,4.67,18.027a4.867,4.867,0,0,1,4.857-5.044,4.944,4.944,0,0,1,4.95,5.044A4.944,4.944,0,0,1,9.527,23.07Z" transform="translate(0 -0.561)"/></svg>